<svg width="188" height="188" viewBox="0 0 188 188" fill="none" xmlns="http://www.w3.org/2000/svg">
<path d="M109.666 175.182C130.432 175.182 147.266 173.524 147.266 171.479C147.266 169.434 130.432 167.776 109.666 167.776C88.9005 167.776 72.0664 169.434 72.0664 171.479C72.0664 173.524 88.9005 175.182 109.666 175.182Z" fill="black" fill-opacity="0.1"/>
<circle cx="132.311" cy="34.6089" r="3.56061" fill="#FF0000"/>
<circle cx="132.311" cy="34.6089" r="3.56061" fill="#FF0000"/>
<circle cx="125.19" cy="21.2213" r="3.56061" fill="#FF0000"/>
<circle cx="125.19" cy="21.2213" r="3.56061" fill="#FF0000"/>
<circle cx="112.657" cy="10.3968" r="3.56061" fill="#FF0000"/>
<circle cx="112.657" cy="10.3968" r="3.56061" fill="#FF0000"/>
<circle cx="71.3536" cy="36.8878" r="3.56061" fill="#FF0000"/>
<circle cx="71.3536" cy="36.8878" r="3.56061" fill="#FF0000"/>
<circle cx="75.9112" cy="24.6392" r="3.56061" fill="#FF0000"/>
<circle cx="75.9112" cy="24.6392" r="3.56061" fill="#FF0000"/>
<circle cx="83.6021" cy="14.0997" r="3.56061" fill="#FF0000"/>
<circle cx="83.6021" cy="14.0997" r="3.56061" fill="#FF0000"/>
<circle cx="97.8448" cy="7.26349" r="3.56061" fill="#FF0000"/>
<circle cx="97.8448" cy="7.26349" r="3.56061" fill="#FF0000"/>
<path d="M135.104 142.86C133.889 143.05 131.764 144.796 132.713 146.694C133.662 148.592 138.293 152.085 140.95 150.187C143.57 148.289 139.773 143.619 138.748 143.392C137.686 143.126 135.104 142.86 135.104 142.86Z" fill="#2A94F4"/>
<path d="M140.761 126.423C141.406 129.953 138.369 144.91 138.369 144.91C138.369 144.91 134.839 146.466 134.08 143.657C133.358 140.848 132.447 128.853 132.447 128.853C132.447 128.853 137.496 123.082 140.761 126.423Z" fill="#FFE3CA"/>
<path d="M85.8315 152.54C84.351 150.3 80.2513 151.059 79.0366 156.526C77.7839 161.992 82.8706 164.308 85.8315 155.767C85.9833 153.261 85.8315 152.54 85.8315 152.54Z" fill="#2A94F4"/>
<path d="M93.0435 144.91C92.0565 146.049 86.8938 152.122 84.8819 152.274C83.1357 154.932 84.0847 156.564 84.8819 156.564C91.563 155.501 98.6617 152.274 100.522 150.149C98.5099 146.239 93.0435 144.91 93.0435 144.91Z" fill="#FFE3CA"/>
<path d="M123.602 114.693C131.384 114.921 140.836 120.501 141.482 125.436C142.127 130.371 132.523 133.825 132.523 133.825C132.523 133.825 118.971 128.017 114.719 129.308C109.405 123.082 110.734 117.692 110.734 117.692L123.602 114.693Z" fill="#0A3E5B"/>
<path d="M91.4878 121.033C92.1331 124.183 94.183 135.23 92.1331 141.456C91.5637 143.164 91.6017 145.024 92.247 146.694C93.7654 150.49 97.3337 154.742 101.965 152.806C108.646 147.985 117.833 131.662 116.276 126.423C114.72 121.184 103.218 118.717 103.218 118.717L91.4878 121.033Z" fill="#0A3E5B"/>
<path d="M131.346 50.9951C131.346 50.9951 130.397 49.0212 130.283 48.4138C130.169 47.8064 135.104 43.0993 137.154 44.8075C139.204 46.5157 137.382 50.4637 134.573 51.6025C131.764 52.7034 131.346 50.9951 131.346 50.9951Z" fill="#FFE3CA"/>
<path d="M70.5331 54.2216C71.4821 53.1587 73.7598 50.8431 73.494 49.1728C72.2793 48.1099 71.4821 50.2737 71.4821 50.2737C71.4821 50.2737 71.2923 46.136 70.5331 46.0221C69.7739 45.9082 65.6741 46.8193 65.5223 47.8442C65.3705 48.9071 65.0288 53.1587 66.0538 54.2216C67.0787 55.2845 70.5331 54.2216 70.5331 54.2216Z" fill="#FFE3CA"/>
<path d="M109.67 79.9212C110.923 77.7574 131.801 65.0405 129.524 50.1599C132.105 50.8052 135.37 52.1339 135.37 52.1339C135.37 52.1339 134.231 79.6934 113.694 90.0187C109.442 87.7411 109.67 79.9212 109.67 79.9212Z" fill="#2A94F4"/>
<path d="M99.5728 80.7182C93.3472 79.0859 88.8299 78.1749 86.4384 78.1749C80.1369 73.6955 67.5719 62.8387 71.1782 54.5633C65.3322 53.6143 65.3322 53.6143 65.3322 53.6143C65.3322 53.6143 57.3604 74.4167 87.4633 91.0436C87.4633 104.671 76.3408 120.615 76.3408 120.615C77.1759 122.058 114.757 136.824 126.031 112.605C116.997 99.6607 116.997 99.6607 116.997 99.6607C116.997 99.6607 116.389 87.5512 115.137 85.6911C113.922 83.831 111.113 79.5035 109.101 79.8831C107.165 80.3007 99.5728 80.7182 99.5728 80.7182Z" fill="#2A94F4"/>
<path d="M105.153 78.5165C104.66 80.3006 105.647 82.9959 106.064 83.4134C102.078 84.3245 96.3843 82.5024 95.9667 80.9839C95.5491 79.4276 96.5741 75.7454 96.5741 75.7454L105.153 78.5165Z" fill="#FFD7B6"/>
<path d="M101.472 53.0832C102.499 53.0832 103.332 52.2504 103.332 51.2231C103.332 50.1958 102.499 49.363 101.472 49.363C100.445 49.363 99.6118 50.1958 99.6118 51.2231C99.6118 52.2504 100.445 53.0832 101.472 53.0832Z" fill="#FFA42C"/>
<path d="M102.231 52.096C100.219 53.994 97.2201 54.1838 94.449 54.1838C91.7158 54.1838 88.7169 54.2218 86.5532 55.93C84.0098 57.904 83.0987 61.776 80.0998 62.8769C78.1259 63.5981 75.7343 62.687 74.7094 60.8649C73.7224 59.0428 74.2539 56.4994 75.9242 55.2467C78.6953 53.1589 83.2506 54.6773 85.6801 52.2099C86.3634 51.5266 86.743 50.6155 87.2744 49.8184C89.0206 47.1611 92.3612 45.6427 95.5119 46.1362C98.6247 46.5917 101.396 49.0212 102.231 52.096Z" fill="#083042"/>
<path d="M101.054 52.1341C101.599 52.1341 102.041 51.6922 102.041 51.1471C102.041 50.602 101.599 50.1602 101.054 50.1602C100.509 50.1602 100.067 50.602 100.067 51.1471C100.067 51.6922 100.509 52.1341 101.054 52.1341Z" fill="#2A94F4"/>
<path d="M99.6114 52.1341C100.261 52.1341 100.788 51.6072 100.788 50.9573C100.788 50.3074 100.261 49.7805 99.6114 49.7805C98.9615 49.7805 98.4346 50.3074 98.4346 50.9573C98.4346 51.6072 98.9615 52.1341 99.6114 52.1341Z" fill="#FFA42C"/>
<path d="M92.3987 54.0321C92.5126 51.9822 91.146 51.4507 89.2479 50.6156C87.3499 49.7805 85.1482 49.8944 83.2122 50.5776C81.6178 51.1471 80.0235 52.2479 79.6439 53.8802C79.3781 54.9431 79.6818 56.0819 79.4161 57.1449C78.9226 59.0429 76.7968 60.0299 74.8228 60.3336C72.8868 60.6372 70.799 60.5613 69.0528 61.4344C66.7752 62.5732 65.5224 65.1925 65.5604 67.7359C65.6363 70.2793 66.8511 72.6708 68.5213 74.5688C69.0908 75.2142 69.6981 75.7836 70.4573 76.1252C71.2166 76.4669 72.1656 76.5048 72.8868 76.0493C73.684 75.5558 74.0636 74.5309 74.0636 73.5439C74.0636 72.5949 73.8359 71.6459 73.722 70.6968C73.5322 69.0645 73.7979 67.3563 74.671 65.9897C75.5441 64.6231 77.1005 63.6362 78.7328 63.6362C80.4031 63.6362 81.9595 64.6611 83.6297 64.8509C86.1352 65.1166 88.5267 63.4463 89.8933 61.3205C91.2219 59.1947 91.7154 56.6514 92.2089 54.146L92.3987 54.0321Z" fill="#0A3E5B"/>
<path d="M99.0041 76.0873C105.923 76.0873 111.531 70.4788 111.531 63.5603C111.531 56.6418 105.923 51.0332 99.0041 51.0332C92.0856 51.0332 86.4771 56.6418 86.4771 63.5603C86.4771 70.4788 92.0856 76.0873 99.0041 76.0873Z" fill="#0A3E5B"/>
<path d="M112.176 67.2045C112.366 73.1264 111.569 79.4279 105.267 79.8835C98.4343 80.0733 93.2716 75.2143 93.1957 69.1026C93.1198 63.0289 98.0167 58.018 104.09 57.9801C110.126 57.9042 111.986 61.8521 112.176 67.2045Z" fill="#FFE3CA"/>
<path d="M108.684 55.3988C112.935 57.8663 114.264 63.7502 113.467 64.2437C112.632 64.7372 91.6771 70.659 92.4743 64.6233C93.2715 58.5116 100.294 49.8186 108.684 55.3988Z" fill="#0A3E5B"/>
<path d="M91.8674 55.3227C92.8947 55.3227 93.7275 54.4899 93.7275 53.4626C93.7275 52.4353 92.8947 51.6025 91.8674 51.6025C90.8401 51.6025 90.0073 52.4353 90.0073 53.4626C90.0073 54.4899 90.8401 55.3227 91.8674 55.3227Z" fill="#FFA42C"/>
<path d="M89.0199 58.2078C89.8585 58.2078 90.5383 57.5279 90.5383 56.6893C90.5383 55.8507 89.8585 55.1709 89.0199 55.1709C88.1813 55.1709 87.5015 55.8507 87.5015 56.6893C87.5015 57.5279 88.1813 58.2078 89.0199 58.2078Z" fill="#FFA42C"/>
<path d="M90.425 56.1959C90.9701 56.1959 91.4119 55.754 91.4119 55.2089C91.4119 54.6638 90.9701 54.2219 90.425 54.2219C89.8799 54.2219 89.438 54.6638 89.438 55.2089C89.438 55.754 89.8799 56.1959 90.425 56.1959Z" fill="#2A94F4"/>
<path d="M93.7651 65.61C93.1957 66.6729 92.5504 68.533 92.854 69.6339C92.0189 70.2412 90.1968 66.8627 90.1968 66.8627L92.0189 62.7629L93.7651 65.61Z" fill="#0A3E5B"/>
<path d="M93.9254 72.548C94.6711 71.97 94.6093 70.6418 93.7873 69.5812C92.9653 68.5207 91.6945 68.1295 90.9488 68.7074C90.2031 69.2854 90.265 70.6136 91.0869 71.6742C91.9089 72.7347 93.1797 73.1259 93.9254 72.548Z" fill="#FFE3CA"/>
<circle cx="69.9301" cy="35.4635" r="0.99697" fill="white"/>
<circle cx="75.0575" cy="22.9303" r="0.99697" fill="white"/>
<circle cx="81.8939" cy="12.9606" r="0.99697" fill="white"/>
<circle cx="99.5546" cy="5.8395" r="0.99697" fill="white"/>
<circle cx="111.803" cy="9.25747" r="0.99697" fill="white"/>
<circle cx="126.9" cy="20.0819" r="0.99697" fill="white"/>
<circle cx="133.452" cy="33.4696" r="0.99697" fill="white"/>
</svg>
