<svg width="109" height="231" viewBox="0 0 109 231" fill="none" xmlns="http://www.w3.org/2000/svg">
<ellipse cx="-0.437408" cy="115.43" rx="115.43" ry="108.563" transform="rotate(-90 -0.437408 115.43)" fill="#861014"/>
<ellipse cx="-0.95192" cy="115.977" rx="102.848" ry="96.7287" transform="rotate(-90 -0.95192 115.977)" fill="#BA1B20"/>
<ellipse cx="-0.43734" cy="115.43" rx="89.1713" ry="83.8659" transform="rotate(-90 -0.43734 115.43)" fill="#861014"/>
<ellipse cx="-0.437546" cy="117.619" rx="76.0418" ry="71.5175" transform="rotate(-90 -0.437546 117.619)" fill="#BA1B20"/>
<ellipse cx="-0.951607" cy="118.712" rx="65.1005" ry="61.7418" transform="rotate(-90 -0.951607 118.712)" fill="#861014"/>
<ellipse cx="-0.437298" cy="120.901" rx="55.2534" ry="49.9079" transform="rotate(-90 -0.437298 120.901)" fill="#BA1B20"/>
<ellipse cx="-0.952427" cy="121.448" rx="47.0474" ry="44.2483" transform="rotate(-90 -0.952427 121.448)" fill="#861014"/>
<ellipse cx="-0.95224" cy="120.354" rx="38.2944" ry="36.016" transform="rotate(-90 -0.95224 120.354)" fill="#BA1B20"/>
<ellipse cx="-0.952095" cy="121.448" rx="31.7297" ry="29.8419" transform="rotate(-90 -0.952095 121.448)" fill="#861014"/>
</svg>
