<svg width="108" height="123" viewBox="0 0 108 123" fill="none" xmlns="http://www.w3.org/2000/svg">
<path d="M-0.000229508 107.626L22.3801 60.2394L28.7745 82.5793L5.01976 103.769L31.2557 86.5399L47.9003 100.99L-0.000229508 107.626Z" fill="#FF0000"/>
<ellipse rx="9.15886" ry="9.58906" transform="matrix(0.995573 -0.0939883 0.0977507 0.995211 58.2534 56.8144)" fill="#FF0000"/>
<ellipse rx="2.49787" ry="2.6152" transform="matrix(0.995573 -0.0939883 0.0977507 0.995211 54.5965 53.6573)" fill="#F3F3F3"/>
<ellipse rx="7.00384" ry="7.33281" transform="matrix(0.995573 -0.0939883 0.0977507 0.995211 84.4899 37.3407)" fill="#FF0000"/>
<ellipse rx="1.91014" ry="1.99986" transform="matrix(0.995573 -0.0939883 0.0977507 0.995211 81.6934 34.9264)" fill="#F3F3F3"/>
<ellipse rx="7.00384" ry="7.33281" transform="matrix(0.995573 -0.0939883 0.0977507 0.995211 95.6789 7.95595)" fill="#FF0000"/>
<ellipse rx="1.91014" ry="1.99986" transform="matrix(0.995573 -0.0939883 0.0977507 0.995211 92.8833 5.54207)" fill="#F3F3F3"/>
</svg>
