<svg width="90" height="105" viewBox="0 0 90 105" fill="none" xmlns="http://www.w3.org/2000/svg">
<path d="M90.0001 87.5253L51.7192 84.9009L64.4785 70.45L85.8857 84.3509L66.32 66.6404L70.6698 45.7126L90.0001 87.5253Z" fill="#FF0000"/>
<ellipse rx="8.44646" ry="8.98085" transform="matrix(-1 0 0 1 45.2132 49.1306)" fill="#FF0000"/>
<ellipse rx="2.30358" ry="2.44932" transform="matrix(-1 0 0 1 48.2848 45.8647)" fill="#F3F3F3"/>
<ellipse rx="6.45906" ry="6.86771" transform="matrix(-1 0 0 1 19.3774 33.282)" fill="#FF0000"/>
<ellipse rx="1.76156" ry="1.87301" transform="matrix(-1 0 0 1 21.7257 30.7846)" fill="#F3F3F3"/>
<ellipse rx="6.45906" ry="6.86771" transform="matrix(-1 0 0 1 6.4594 6.86771)" fill="#FF0000"/>
<ellipse rx="1.76156" ry="1.87301" transform="matrix(-1 0 0 1 8.80777 4.37033)" fill="#F3F3F3"/>
</svg>
